STARTFONT 2.1
COMMENT http://code.google.com/p/u8glib/
FONT m2icon5
SIZE 5 72 72
FONTBOUNDINGBOX 9 6 0 -1
STARTPROPERTIES 11
FOUNDRY "u8glib"
FAMILY_NAME ""
WEIGHT_NAME "Medium"
SLANT "R"
SETWIDTH_NAME "Normal"
SPACING "c"
CHARSET_REGISTRY "ISO-8859"
CHARSET_ENCODING "1"
COPYRIGHT "public domain"
FONT_ASCENT  5
FONT_DESCENT 1
ENDPROPERTIES
CHARS 24
STARTCHAR C101
ENCODING 65
SWIDTH 1800 0
DWIDTH 9 0
BBX 7 5 0 0
BITMAP
1c
fe
82
82
fe
ENDCHAR
STARTCHAR C102
ENCODING 66
SWIDTH 1600 0
DWIDTH 8 0
BBX 4 5 0 0
BITMAP
70
d0
90
90
f0
ENDCHAR
STARTCHAR C103
ENCODING 67
SWIDTH 1200 0
DWIDTH 6 0
BBX 5 4 0 0
BITMAP
d8
70
70
d8
ENDCHAR
STARTCHAR C104
ENCODING 68
SWIDTH 1600 0
DWIDTH 8 0
BBX 7 5 0 0
BITMAP
06
0c
d8
70
20
ENDCHAR
STARTCHAR C105
ENCODING 69
SWIDTH 1000 0
DWIDTH 5 0
BBX 4 4 0 0
BITMAP
f0
90
90
f0
ENDCHAR
STARTCHAR C106
ENCODING 70
SWIDTH 1000 0
DWIDTH 5 0
BBX 4 4 0 0
BITMAP
f0
90
d0
f0
ENDCHAR
STARTCHAR C107
ENCODING 71
SWIDTH 1000 0
DWIDTH 5 0
BBX 4 4 0 0
BITMAP
f0
f0
f0
f0
ENDCHAR
STARTCHAR C110
ENCODING 72
SWIDTH 1200 0
DWIDTH 6 0
BBX 5 5 0 0
BITMAP
f8
88
88
88
f8
ENDCHAR
STARTCHAR C111
ENCODING 73
SWIDTH 1200 0
DWIDTH 6 0
BBX 5 5 0 0
BITMAP
f8
88
a8
88
f8
ENDCHAR
STARTCHAR C112
ENCODING 74
SWIDTH 1200 0
DWIDTH 6 0
BBX 5 5 0 0
BITMAP
f8
f8
f8
f8
f8
ENDCHAR
STARTCHAR C113
ENCODING 75
SWIDTH 1000 0
DWIDTH 5 0
BBX 4 4 0 0
BITMAP
e0
b0
f0
70
ENDCHAR
STARTCHAR C114
ENCODING 76
SWIDTH 1000 0
DWIDTH 5 0
BBX 4 4 0 0
BITMAP
e0
b0
f0
70
ENDCHAR
STARTCHAR C115
ENCODING 77
SWIDTH 1000 0
DWIDTH 5 0
BBX 4 4 0 0
BITMAP
e0
f0
f0
70
ENDCHAR
STARTCHAR C116
ENCODING 78
SWIDTH 1200 0
DWIDTH 6 0
BBX 5 5 0 0
BITMAP
f0
98
98
f8
78
ENDCHAR
STARTCHAR C117
ENCODING 79
SWIDTH 1200 0
DWIDTH 6 0
BBX 5 5 0 0
BITMAP
f0
98
d8
f8
78
ENDCHAR
STARTCHAR C120
ENCODING 80
SWIDTH 1200 0
DWIDTH 6 0
BBX 5 5 0 0
BITMAP
f0
f8
f8
f8
78
ENDCHAR
STARTCHAR C121
ENCODING 81
SWIDTH 1000 0
DWIDTH 5 0
BBX 4 4 0 0
BITMAP
60
90
90
60
ENDCHAR
STARTCHAR C122
ENCODING 82
SWIDTH 1000 0
DWIDTH 5 0
BBX 4 4 0 0
BITMAP
60
90
d0
60
ENDCHAR
STARTCHAR C123
ENCODING 83
SWIDTH 1000 0
DWIDTH 5 0
BBX 4 4 0 0
BITMAP
60
f0
f0
60
ENDCHAR
STARTCHAR C141
ENCODING 97
SWIDTH 1600 0
DWIDTH 8 0
BBX 7 5 0 0
BITMAP
20
40
fe
40
20
ENDCHAR
STARTCHAR C142
ENCODING 98
SWIDTH 1200 0
DWIDTH 6 0
BBX 5 5 0 0
BITMAP
20
70
a8
20
20
ENDCHAR
STARTCHAR C146
ENCODING 102
SWIDTH 2000 0
DWIDTH 10 0
BBX 9 5 0 0
BITMAP
1c00
fe00
8200
bf80
ff00
ENDCHAR
STARTCHAR C147
ENCODING 103
SWIDTH 400 0
DWIDTH 2 0
BBX 1 6 0 -1
BITMAP
80
80
80
80
80
80
ENDCHAR
STARTCHAR C150
ENCODING 104
SWIDTH 1200 0
DWIDTH 6 0
BBX 5 5 0 0
BITMAP
20
20
f8
20
20
ENDCHAR
ENDFONT
